# xmcd CD database file
#
# Track frame offsets:
#	150
#	34067
#	57630
#	85487
#	106552
#	132117
#	156610
#	179007
#	193892
#	212917
#
# Disc length: 3310 seconds
#
# Revision: 2
# Processed by: cddbd v1.4PL0 Copyright (c) Steve Scherf et al.
# Submitted via: NeoAudio 9.9.9
#
DISCID=960cec0a
DTITLE=Hopmans Combi Jazzband - Live!
DYEAR=2000
DGENRE=Jazz+Funk
TTITLE0=Fidgety Feet
TTITLE1=See See Rider
TTITLE2=Milenbergs Joy's
TTITLE3=Ballin the Jack
TTITLE4=Breeze
TTITLE5=Please don't talk about me when i'm gone
TTITLE6=I'm making Woopy
TTITLE7=Swannee River
TTITLE8=Melancholie blues
TTITLE9=Riverboat shuffle
EXTD=YEAR: 2000
EXTT0=
EXTT1=
EXTT2=
EXTT3=
EXTT4=
EXTT5=
EXTT6=
EXTT7=
EXTT8=
EXTT9=
PLAYORDER=
